<?xml version="1.0" standalone="no"?>
<!DOCTYPE svg PUBLIC "-//W3C//DTD SVG 20010904//EN"
 "http://www.w3.org/TR/2001/REC-SVG-20010904/DTD/svg10.dtd">
<svg version="1.0" xmlns="http://www.w3.org/2000/svg"
 width="512.000000pt" height="512.000000pt" viewBox="0 0 512.000000 512.000000"
 preserveAspectRatio="xMidYMid meet">

<g transform="translate(0.000000,512.000000) scale(0.100000,-0.100000)"
fill="#000000" stroke="none">
<path d="M2845 4545 c-153 -308 -280 -562 -282 -565 -2 -2 -163 155 -358 350
l-355 355 0 -493 c0 -444 -2 -492 -16 -492 -9 0 -324 61 -701 136 -377 74
-687 134 -689 132 -2 -2 249 -256 556 -563 308 -308 560 -563 560 -567 0 -7
-101 -63 -565 -315 -121 -66 -305 -167 -410 -225 -104 -57 -272 -148 -372
-203 -101 -54 -183 -102 -183 -107 0 -4 378 -8 840 -8 l840 0 -425 -851 c-234
-468 -420 -847 -413 -843 7 4 386 257 842 562 456 305 835 555 842 556 11 1
210 -178 1108 -999 127 -116 279 -254 338 -309 60 -54 110 -97 112 -95 1 2
-14 83 -35 179 -21 96 -81 380 -134 630 -53 250 -130 612 -171 803 -41 192
-74 353 -74 358 0 5 277 9 700 9 385 0 700 3 700 8 0 4 -250 194 -555 422
-305 228 -554 420 -555 426 0 6 163 195 361 420 560 633 731 828 746 845 10
12 -230 -44 -833 -195 -819 -205 -847 -211 -855 -191 -5 11 -67 317 -139 680
-72 363 -135 671 -139 685 -7 21 -49 -57 -286 -535z m330 -851 c51 -254 84
-398 92 -401 7 -3 205 43 441 101 235 59 448 112 474 118 26 7 51 9 54 5 4 -3
-29 -47 -72 -96 -44 -49 -185 -209 -314 -355 -129 -147 -235 -274 -235 -284 0
-11 108 -98 294 -238 162 -121 297 -226 299 -232 3 -9 -91 -12 -390 -12 -216
0 -398 -4 -405 -8 -9 -6 -8 -30 8 -102 11 -52 24 -115 29 -140 5 -25 18 -88
30 -140 11 -52 25 -115 30 -140 9 -45 42 -198 101 -472 16 -79 38 -181 48
-228 11 -50 14 -86 9 -89 -5 -2 -22 8 -36 21 -37 34 -673 612 -790 718 -52 47
-105 93 -118 103 l-23 18 -436 -290 c-394 -264 -455 -302 -455 -286 0 2 113
230 250 506 138 276 249 508 246 516 -4 11 -89 13 -463 13 -285 0 -453 4 -447
9 12 12 267 155 539 301 233 125 257 139 253 150 -2 4 -146 153 -320 330 -277
280 -332 340 -314 340 2 0 159 -31 350 -70 190 -38 355 -70 366 -70 20 0 20 6
20 285 0 222 3 285 13 285 7 0 109 -97 227 -215 137 -138 218 -211 224 -205 6
5 83 153 171 329 88 177 162 321 165 321 4 0 42 -178 85 -396z"/>
</g>
</svg>
