<?xml version="1.0" standalone="no"?>
<!DOCTYPE svg PUBLIC "-//W3C//DTD SVG 20010904//EN"
 "http://www.w3.org/TR/2001/REC-SVG-20010904/DTD/svg10.dtd">
<svg version="1.0" xmlns="http://www.w3.org/2000/svg"
 width="30.000000pt" height="30.000000pt" viewBox="0 0 128.000000 128.000000"
 preserveAspectRatio="xMidYMid meet">

<g transform="translate(0.000000,128.000000) scale(0.100000,-0.100000)"
fill="#000000" stroke="none">
<path d="M130 1208 c-19 -13 -45 -39 -58 -58 l-23 -34 3 -482 c3 -469 4 -483
24 -511 11 -15 40 -38 64 -51 44 -22 47 -22 501 -22 l456 0 43 23 c30 16 51
37 67 67 l23 43 0 456 c0 454 0 457 -22 501 -13 24 -36 53 -51 64 -28 20 -42
21 -511 24 l-482 3 -34 -23z m655 -260 c34 -120 165 -603 165 -610 0 -4 -47
-8 -104 -8 l-105 0 -6 54 -7 53 -46 6 c-26 3 -68 3 -94 0 -50 -6 -51 -7 -63
-75 l-6 -38 -100 0 c-91 0 -100 2 -95 18 21 71 179 594 187 620 l11 32 123 0
124 0 16 -52z"/>
<path d="M607 706 c-15 -57 -27 -107 -27 -110 0 -3 25 -6 55 -6 61 0 63 4 46
70 -5 19 -15 61 -21 93 -6 31 -15 57 -19 57 -4 0 -19 -47 -34 -104z"/>
</g>
</svg>
