<?xml version="1.0" standalone="no"?>
<!DOCTYPE svg PUBLIC "-//W3C//DTD SVG 20010904//EN"
 "http://www.w3.org/TR/2001/REC-SVG-20010904/DTD/svg10.dtd">
<svg version="1.0" xmlns="http://www.w3.org/2000/svg"
 width="100.000000pt" height="100.000000pt" viewBox="0 0 100.000000 100.000000"
 preserveAspectRatio="xMidYMid meet">

<g transform="translate(0.000000,100.000000) scale(0.100000,-0.100000)"
fill="#000000" stroke="none">
<path d="M120 938 c-69 -48 -70 -53 -70 -439 1 -385 1 -390 70 -436 33 -23 37
-23 379 -23 391 0 390 0 431 79 19 38 20 58 20 378 0 332 0 340 -22 383 -42
80 -44 80 -434 80 -337 0 -341 0 -374 -22z m547 -408 c45 -129 82 -241 82
-247 1 -9 -15 -13 -48 -13 l-50 0 -17 55 -18 55 -96 0 -96 0 -18 -55 -17 -55
-50 0 c-27 0 -49 4 -49 8 0 7 132 390 165 480 3 9 23 12 67 10 l63 -3 82 -235z"/>
<path d="M483 565 l-31 -95 65 0 c57 0 65 2 60 18 -28 100 -52 172 -57 172 -3
0 -20 -43 -37 -95z"/>
</g>
</svg>
